<mxfile host="Electron" modified="2023-09-19T13:43:24.619Z" agent="Mozilla/5.0 (Macintosh; Intel Mac OS X 10_15_7) AppleWebKit/537.36 (KHTML, like Gecko) draw.io/21.7.5 Chrome/114.0.5735.289 Electron/25.8.1 Safari/537.36" etag="UwoMZZhEff_IfRbQF32E" version="21.7.5" type="device" pages="2">
  <diagram id="cAdHGZJsjUvaponxbGY9" name="domains">
    <mxGraphModel dx="2338" dy="1419" grid="1" gridSize="10" guides="1" tooltips="1" connect="1" arrows="1" fold="1" page="0" pageScale="1" pageWidth="1100" pageHeight="850" math="0" shadow="0">
      <root>
        <mxCell id="0" />
        <mxCell id="1" value="elements" style="locked=1;" parent="0" />
        <mxCell id="cLyZf-0CtYA_WugBfVHc-8" value="" style="whiteSpace=wrap;html=1;aspect=fixed;strokeWidth=3;strokeColor=none;fillColor=#FFE6CC;" parent="1" vertex="1">
          <mxGeometry x="240" y="320" width="240" height="240" as="geometry" />
        </mxCell>
        <mxCell id="cLyZf-0CtYA_WugBfVHc-12" value="" style="whiteSpace=wrap;html=1;aspect=fixed;strokeWidth=3;strokeColor=none;fillColor=#E6FFCC;" parent="1" vertex="1">
          <mxGeometry x="480" y="320" width="240" height="240" as="geometry" />
        </mxCell>
        <mxCell id="cLyZf-0CtYA_WugBfVHc-14" value="&lt;font style=&quot;font-size: 24px;&quot;&gt;&lt;br&gt;&lt;/font&gt;" style="whiteSpace=wrap;html=1;aspect=fixed;strokeWidth=3;strokeColor=none;fillColor=#E5CCFF;" parent="1" vertex="1">
          <mxGeometry x="480" y="560" width="240" height="240" as="geometry" />
        </mxCell>
        <mxCell id="cLyZf-0CtYA_WugBfVHc-13" value="&lt;font style=&quot;font-size: 24px;&quot;&gt;&lt;br&gt;&lt;/font&gt;" style="whiteSpace=wrap;html=1;aspect=fixed;strokeWidth=3;strokeColor=none;fillColor=#CCE5FF;" parent="1" vertex="1">
          <mxGeometry x="240" y="560" width="240" height="240" as="geometry" />
        </mxCell>
        <mxCell id="cLyZf-0CtYA_WugBfVHc-23" value="text" style="locked=1;" parent="0" />
        <mxCell id="cLyZf-0CtYA_WugBfVHc-19" value="&lt;span style=&quot;font-size: 36px;&quot;&gt;finance&lt;/span&gt;" style="whiteSpace=wrap;html=1;aspect=fixed;strokeWidth=3;strokeColor=none;fillColor=#E6FFCC;fontSize=36;" parent="cLyZf-0CtYA_WugBfVHc-23" vertex="1">
          <mxGeometry x="480" y="370" width="190" height="190" as="geometry" />
        </mxCell>
        <mxCell id="cLyZf-0CtYA_WugBfVHc-20" value="&lt;font style=&quot;font-size: 36px;&quot;&gt;privacy&lt;br style=&quot;font-size: 36px;&quot;&gt;&lt;/font&gt;" style="whiteSpace=wrap;html=1;aspect=fixed;strokeWidth=3;strokeColor=none;fillColor=#E5CCFF;fontSize=36;" parent="cLyZf-0CtYA_WugBfVHc-23" vertex="1">
          <mxGeometry x="480" y="560" width="190" height="190" as="geometry" />
        </mxCell>
        <mxCell id="cLyZf-0CtYA_WugBfVHc-21" value="&lt;font style=&quot;font-size: 36px;&quot;&gt;operation&lt;br style=&quot;font-size: 36px;&quot;&gt;&lt;/font&gt;" style="whiteSpace=wrap;html=1;aspect=fixed;strokeWidth=3;strokeColor=none;fillColor=#CCE5FF;fontSize=36;" parent="cLyZf-0CtYA_WugBfVHc-23" vertex="1">
          <mxGeometry x="290" y="560" width="190" height="190" as="geometry" />
        </mxCell>
        <mxCell id="cLyZf-0CtYA_WugBfVHc-18" value="&lt;span style=&quot;font-size: 36px;&quot;&gt;safety&lt;/span&gt;" style="whiteSpace=wrap;html=1;aspect=fixed;strokeWidth=3;strokeColor=none;fillColor=#FFE6CC;fontSize=36;" parent="cLyZf-0CtYA_WugBfVHc-23" vertex="1">
          <mxGeometry x="290" y="370" width="190" height="190" as="geometry" />
        </mxCell>
        <mxCell id="cLyZf-0CtYA_WugBfVHc-15" value="ring" style="locked=1;" parent="0" />
        <mxCell id="cLyZf-0CtYA_WugBfVHc-7" value="" style="ellipse;whiteSpace=wrap;html=1;aspect=fixed;fillColor=none;strokeWidth=3;" parent="cLyZf-0CtYA_WugBfVHc-15" vertex="1">
          <mxGeometry x="240" y="320" width="480" height="480" as="geometry" />
        </mxCell>
        <mxCell id="cLyZf-0CtYA_WugBfVHc-16" value="" style="endArrow=none;html=1;rounded=0;entryX=0.5;entryY=0;entryDx=0;entryDy=0;exitX=0.5;exitY=1;exitDx=0;exitDy=0;strokeWidth=3;" parent="cLyZf-0CtYA_WugBfVHc-15" source="cLyZf-0CtYA_WugBfVHc-7" target="cLyZf-0CtYA_WugBfVHc-7" edge="1">
          <mxGeometry width="50" height="50" relative="1" as="geometry">
            <mxPoint x="530" y="730" as="sourcePoint" />
            <mxPoint x="580" y="680" as="targetPoint" />
          </mxGeometry>
        </mxCell>
        <mxCell id="cLyZf-0CtYA_WugBfVHc-17" value="" style="endArrow=none;html=1;rounded=0;entryX=0;entryY=0.5;entryDx=0;entryDy=0;exitX=1;exitY=0.5;exitDx=0;exitDy=0;strokeWidth=3;" parent="cLyZf-0CtYA_WugBfVHc-15" source="cLyZf-0CtYA_WugBfVHc-7" target="cLyZf-0CtYA_WugBfVHc-7" edge="1">
          <mxGeometry width="50" height="50" relative="1" as="geometry">
            <mxPoint x="490" y="810" as="sourcePoint" />
            <mxPoint x="490" y="330" as="targetPoint" />
          </mxGeometry>
        </mxCell>
      </root>
    </mxGraphModel>
  </diagram>
  <diagram name="use" id="z8af5gFmixbVIJ37kYY_">
    <mxGraphModel dx="2396" dy="978" grid="1" gridSize="10" guides="1" tooltips="1" connect="1" arrows="1" fold="1" page="0" pageScale="1" pageWidth="1100" pageHeight="850" math="0" shadow="0">
      <root>
        <mxCell id="Ld40Q0NJ5tMpmQWsl5K9-0" />
        <mxCell id="Ld40Q0NJ5tMpmQWsl5K9-1" value="elements" style="locked=1;" parent="Ld40Q0NJ5tMpmQWsl5K9-0" />
        <mxCell id="Ld40Q0NJ5tMpmQWsl5K9-2" value="" style="whiteSpace=wrap;html=1;aspect=fixed;strokeWidth=3;strokeColor=none;fillColor=#FFE6CC;" vertex="1" parent="Ld40Q0NJ5tMpmQWsl5K9-1">
          <mxGeometry x="240" y="320" width="240" height="240" as="geometry" />
        </mxCell>
        <mxCell id="Ld40Q0NJ5tMpmQWsl5K9-3" value="" style="whiteSpace=wrap;html=1;aspect=fixed;strokeWidth=3;strokeColor=none;fillColor=#E6FFCC;" vertex="1" parent="Ld40Q0NJ5tMpmQWsl5K9-1">
          <mxGeometry x="480" y="320" width="240" height="240" as="geometry" />
        </mxCell>
        <mxCell id="Ld40Q0NJ5tMpmQWsl5K9-4" value="&lt;font style=&quot;font-size: 24px;&quot;&gt;&lt;br&gt;&lt;/font&gt;" style="whiteSpace=wrap;html=1;aspect=fixed;strokeWidth=3;strokeColor=none;fillColor=#E5CCFF;" vertex="1" parent="Ld40Q0NJ5tMpmQWsl5K9-1">
          <mxGeometry x="480" y="560" width="240" height="240" as="geometry" />
        </mxCell>
        <mxCell id="Ld40Q0NJ5tMpmQWsl5K9-5" value="&lt;font style=&quot;font-size: 24px;&quot;&gt;&lt;br&gt;&lt;/font&gt;" style="whiteSpace=wrap;html=1;aspect=fixed;strokeWidth=3;strokeColor=none;fillColor=#CCE5FF;" vertex="1" parent="Ld40Q0NJ5tMpmQWsl5K9-1">
          <mxGeometry x="240" y="560" width="240" height="240" as="geometry" />
        </mxCell>
        <mxCell id="Ld40Q0NJ5tMpmQWsl5K9-6" value="text" style="locked=1;" parent="Ld40Q0NJ5tMpmQWsl5K9-0" />
        <mxCell id="Ld40Q0NJ5tMpmQWsl5K9-7" value="&lt;span style=&quot;font-size: 36px;&quot;&gt;finance&lt;/span&gt;" style="whiteSpace=wrap;html=1;aspect=fixed;strokeWidth=3;strokeColor=none;fillColor=#E6FFCC;fontSize=36;" vertex="1" parent="Ld40Q0NJ5tMpmQWsl5K9-6">
          <mxGeometry x="480" y="370" width="190" height="190" as="geometry" />
        </mxCell>
        <mxCell id="Ld40Q0NJ5tMpmQWsl5K9-8" value="&lt;font style=&quot;font-size: 36px;&quot;&gt;privacy&lt;br style=&quot;font-size: 36px;&quot;&gt;&lt;/font&gt;" style="whiteSpace=wrap;html=1;aspect=fixed;strokeWidth=3;strokeColor=none;fillColor=#E5CCFF;fontSize=36;" vertex="1" parent="Ld40Q0NJ5tMpmQWsl5K9-6">
          <mxGeometry x="480" y="560" width="190" height="190" as="geometry" />
        </mxCell>
        <mxCell id="Ld40Q0NJ5tMpmQWsl5K9-9" value="&lt;font style=&quot;font-size: 36px;&quot;&gt;operation&lt;br style=&quot;font-size: 36px;&quot;&gt;&lt;/font&gt;" style="whiteSpace=wrap;html=1;aspect=fixed;strokeWidth=3;strokeColor=none;fillColor=#CCE5FF;fontSize=36;" vertex="1" parent="Ld40Q0NJ5tMpmQWsl5K9-6">
          <mxGeometry x="290" y="560" width="190" height="190" as="geometry" />
        </mxCell>
        <mxCell id="Ld40Q0NJ5tMpmQWsl5K9-10" value="&lt;span style=&quot;font-size: 36px;&quot;&gt;safety&lt;/span&gt;" style="whiteSpace=wrap;html=1;aspect=fixed;strokeWidth=3;strokeColor=none;fillColor=#FFE6CC;fontSize=36;" vertex="1" parent="Ld40Q0NJ5tMpmQWsl5K9-6">
          <mxGeometry x="290" y="370" width="190" height="190" as="geometry" />
        </mxCell>
        <mxCell id="Ld40Q0NJ5tMpmQWsl5K9-11" value="ring" style="locked=1;" parent="Ld40Q0NJ5tMpmQWsl5K9-0" />
        <mxCell id="Ld40Q0NJ5tMpmQWsl5K9-12" value="" style="ellipse;whiteSpace=wrap;html=1;aspect=fixed;fillColor=none;strokeWidth=3;" vertex="1" parent="Ld40Q0NJ5tMpmQWsl5K9-11">
          <mxGeometry x="240" y="320" width="480" height="480" as="geometry" />
        </mxCell>
        <mxCell id="Ld40Q0NJ5tMpmQWsl5K9-13" value="" style="endArrow=none;html=1;rounded=0;entryX=0.5;entryY=0;entryDx=0;entryDy=0;exitX=0.5;exitY=1;exitDx=0;exitDy=0;strokeWidth=3;" edge="1" parent="Ld40Q0NJ5tMpmQWsl5K9-11" source="Ld40Q0NJ5tMpmQWsl5K9-12" target="Ld40Q0NJ5tMpmQWsl5K9-12">
          <mxGeometry width="50" height="50" relative="1" as="geometry">
            <mxPoint x="530" y="730" as="sourcePoint" />
            <mxPoint x="580" y="680" as="targetPoint" />
          </mxGeometry>
        </mxCell>
        <mxCell id="Ld40Q0NJ5tMpmQWsl5K9-14" value="" style="endArrow=none;html=1;rounded=0;entryX=0;entryY=0.5;entryDx=0;entryDy=0;exitX=1;exitY=0.5;exitDx=0;exitDy=0;strokeWidth=3;" edge="1" parent="Ld40Q0NJ5tMpmQWsl5K9-11" source="Ld40Q0NJ5tMpmQWsl5K9-12" target="Ld40Q0NJ5tMpmQWsl5K9-12">
          <mxGeometry width="50" height="50" relative="1" as="geometry">
            <mxPoint x="490" y="810" as="sourcePoint" />
            <mxPoint x="490" y="330" as="targetPoint" />
          </mxGeometry>
        </mxCell>
      </root>
    </mxGraphModel>
  </diagram>
</mxfile>
